<?xml version="1.0" encoding="UTF-8"?>
<svg width="25px" height="26px" viewBox="0 0 25 26" version="1.1" xmlns="http://www.w3.org/2000/svg" xmlns:xlink="http://www.w3.org/1999/xlink">
    <!-- Generator: Sketch 56.2 (81672) - https://sketch.com -->
    <title>@0.5xlinkedin</title>
    <desc>Created with Sketch.</desc>
    <g id="Page-1" stroke="none" stroke-width="1" fill="none" fill-rule="evenodd">
        <g id="Artboard-Copy-12" transform="translate(-1143.000000, -6901.000000)" fill-rule="nonzero">
            <g id="linkedin" transform="translate(1143.000000, 6901.000000)">
                <circle id="Oval" fill="#10847E" cx="12.4110619" cy="12.6320796" r="12.4110619"></circle>
                <path d="M19.8265487,13.6307522 L19.8265487,18.7475664 L16.8599558,18.7475664 L16.8599558,13.9736726 C16.8599558,12.775 16.4316372,11.9564159 15.3575221,11.9564159 C14.5378319,11.9564159 14.050885,12.5075221 13.8358407,13.0411504 C13.7577434,13.2318584 13.7376106,13.4966814 13.7376106,13.7641593 L13.7376106,18.7473451 L10.7707965,18.7473451 C10.7707965,18.7473451 10.8106195,10.6619469 10.7707965,9.825 L13.7378319,9.825 L13.7378319,11.0893805 C13.7318584,11.0993363 13.7234513,11.1090708 13.7181416,11.1185841 L13.7378319,11.1185841 L13.7378319,11.0893805 C14.1320796,10.4827434 14.835177,9.61548673 16.4115044,9.61548673 C18.3632743,9.61548673 19.8265487,10.890708 19.8265487,13.6307522 L19.8265487,13.6307522 Z M7.66725664,5.52411504 C6.65243363,5.52411504 5.98849558,6.19026549 5.98849558,7.06548673 C5.98849558,7.92212389 6.63318584,8.60752212 7.62831858,8.60752212 L7.64756637,8.60752212 C8.68230088,8.60752212 9.32566372,7.92212389 9.32566372,7.06548673 C9.30597345,6.19026549 8.68230088,5.52411504 7.66725664,5.52411504 L7.66725664,5.52411504 Z M6.16482301,18.7475664 L9.13053097,18.7475664 L9.13053097,9.825 L6.16482301,9.825 L6.16482301,18.7475664 Z" id="Shape" fill="#F1F2F2"></path>
            </g>
        </g>
    </g>
</svg>